HIERARCHY
ROOT Hips
{
  OFFSET 0 0 0
  CHANNELS 6 Xposition Yposition Zposition Zrotation Xrotation Yrotation
  JOINT Spine
  {
    OFFSET 0 8.18577 0
    CHANNELS 3 Zrotation Xrotation Yrotation
    JOINT Spine1
    {
      OFFSET 0 23.9492 0
      CHANNELS 3 Zrotation Xrotation Yrotation
      JOINT Neck
      {
        OFFSET 0 23.8508 2.16826
        CHANNELS 3 Zrotation Xrotation Yrotation
        JOINT Head
        {
          OFFSET 0 13.9757 -1.99653
          CHANNELS 3 Zrotation Xrotation Yrotation
          End Site
          {
            OFFSET 0 24.9566 0
          }
        }
      }
      JOINT LeftShoulder
      {
        OFFSET 3.97939 22.162 -0.249083
        CHANNELS 3 Zrotation Xrotation Yrotation
        JOINT LeftArm
        {
          OFFSET 10.8129 0 0
          CHANNELS 3 Zrotation Xrotation Yrotation
          JOINT LeftForeArm
          {
            OFFSET 31.6972 0 0
            CHANNELS 3 Zrotation Xrotation Yrotation
            JOINT LeftHand
            {
              OFFSET 27.0474 0 0
              CHANNELS 3 Zrotation Xrotation Yrotation
              End Site
              {
                OFFSET 14.974 0 0
              }
            }
          }
        }
      }
      JOINT RightShoulder
      {
        OFFSET -4.00645 22.162 -0.249083
        CHANNELS 3 Zrotation Xrotation Yrotation
        JOINT RightArm
        {
          OFFSET -10.8129 0 0
          CHANNELS 3 Zrotation Xrotation Yrotation
          JOINT RightForeArm
          {
            OFFSET -31.6972 0 0
            CHANNELS 3 Zrotation Xrotation Yrotation
            JOINT RightHand
            {
              OFFSET -27.0474 0 0
              CHANNELS 3 Zrotation Xrotation Yrotation
              End Site
              {
                OFFSET -14.974 0 0
              }
            }
          }
        }
      }
    }
  }
  JOINT LeftUpLeg
  {
    OFFSET 9.98265 0 0
    CHANNELS 3 Zrotation Xrotation Yrotation
    JOINT LeftLeg
    {
      OFFSET 0 -38.5116 0
      CHANNELS 3 Zrotation Xrotation Yrotation
      JOINT LeftFoot
      {
        OFFSET 0 -44.7893 0
        CHANNELS 3 Zrotation Xrotation Yrotation
        JOINT LeftToeBase
        {
          OFFSET 0 -6.48872 14.974
          CHANNELS 3 Zrotation Xrotation Yrotation
          End Site
          {
            OFFSET 0 0 3.99306
          }
        }
      }
    }
  }
  JOINT RightUpLeg
  {
    OFFSET -9.98265 0 0
    CHANNELS 3 Zrotation Xrotation Yrotation
    JOINT RightLeg
    {
      OFFSET 0 -38.5116 0
      CHANNELS 3 Zrotation Xrotation Yrotation
      JOINT RightFoot
      {
        OFFSET 0 -44.7893 0
        CHANNELS 3 Zrotation Xrotation Yrotation
        JOINT RightToeBase
        {
          OFFSET 0 -6.48872 14.974
          CHANNELS 3 Zrotation Xrotation Yrotation
          End Site
          {
            OFFSET 0 0 3.99306
          }
        }
      }
    }
  }
}
MOTION
Frames:	19
Frame Time:	0.00833333
-22.3662 93.4594 -199.349 0.87311 -0.494162 -179.755 0.439624 -6.72261 0.168646 1.35285 -1.17263 0.157113 4.52157 31.0788 2.68573 -8.54363 -2.88349 2.02672 11.3906 2.18825 -1.40542 -15.9377 4.20186 -0.3968 6.2531 2.54002 -1.48253 -6.60072 2.32731 5.09404 -16.8876 -0.957955 1.13389 19.7032 -9.82706 -1.2419 -4.49121 11.2279 14.4504 -13.5666 13.3804 -13.6687 4.95617 4.29892 3.89049 -1.31158 6.97164 0.148799 -3.67946 -9.65625 8.65099 -9.93923e-017 5.96354e-016 -0 0.197625 1.72653 -5.58535 -2.28348 8.27817 5.78732 2.66557 -6.85005 -17.3482 3.97569e-016 0 -6.36111e-015 
-22.3766 93.4582 -199.345 0.869813 -0.499436 -179.785 0.434769 -6.71367 0.168872 1.37221 -1.19987 0.157857 4.50605 31.0533 2.63734 -8.48043 -2.86414 1.98483 11.3877 2.19004 -1.40213 -15.8986 4.58324 -0.32755 6.30534 2.40244 -1.49322 -6.53354 2.19232 5.12329 -16.8846 -0.932315 1.09856 19.6855 -9.91936 -1.20568 -4.4591 11.3425 14.4055 -13.5986 13.4801 -13.5657 4.94848 4.34669 3.86311 -1.32988 6.90038 0.195777 -3.66153 -9.64393 8.65888 -1.49089e-016 -1.98785e-016 -3.18055e-015 0.177544 1.77002 -5.59406 -2.26521 8.1933 5.75519 2.67949 -6.83138 -17.2878 -1.98785e-016 0 3.18055e-015 
-22.3868 93.4571 -199.344 0.869191 -0.500878 -179.809 0.44022 -6.714 0.155519 1.39131 -1.20415 0.144537 4.41472 31.0014 2.6322 -8.35115 -2.82084 1.98847 11.3719 2.19207 -1.36834 -15.7521 3.82611 -0.436506 6.09467 2.80808 -1.29882 -6.2867 2.59738 5.09758 -16.9185 -0.935473 1.0776 19.7017 -9.95851 -1.1708 -4.45517 11.3342 14.4397 -13.5067 13.4703 -13.6375 4.93944 4.38337 3.86016 -1.33543 6.83959 0.195923 -3.67305 -9.62984 8.67935 1.49089e-016 1.98785e-016 1.59028e-015 0.16887 1.81742 -5.68877 -2.27271 8.08589 5.77054 2.70391 -6.7862 -17.1975 3.97569e-016 0 -0 
-22.3773 93.4559 -199.344 0.918442 -0.48982 -179.804 0.454626 -6.71497 0.136115 1.43543 -1.23125 0.125089 4.41232 30.9779 2.60548 -8.30226 -2.7907 1.96953 11.3755 2.19405 -1.35538 -15.6526 3.62415 -0.480733 6.00058 2.96592 -1.16633 -6.12445 2.75744 5.0425 -16.9041 -0.924319 1.05301 19.6824 -9.907 -1.17034 -4.46695 11.3301 14.4607 -13.4936 13.4663 -13.6317 5.00825 4.42882 3.87359 -1.36042 6.77818 0.219211 -3.65895 -9.61047 8.63554 -2.20695e-032 -3.97569e-016 -3.18055e-015 0.238463 1.89997 -5.72933 -2.28985 7.95705 5.7984 2.71732 -6.71964 -17.1815 0 7.95139e-016 -0 
-22.3921 93.4549 -199.343 0.90213 -0.496447 -179.837 0.444169 -6.71641 0.135679 1.4416 -1.25079 0.125681 4.4164 30.9565 2.57788 -8.26442 -2.77878 1.94757 11.3872 2.19579 -1.33612 -15.5799 3.63329 -0.471717 5.97508 3.0351 -1.11569 -5.97975 2.83418 4.96444 -16.8821 -0.890909 1.03434 19.6573 -9.85737 -1.16462 -4.48 11.3038 14.4688 -13.4786 13.4404 -13.6321 4.98185 4.46959 3.8616 -1.37044 6.70181 0.239845 -3.65548 -9.58855 8.65546 4.96962e-017 -1.98785e-016 -0 0.204957 1.956 -5.71344 -2.26883 7.82739 5.68229 2.72622 -6.67316 -17.0629 -1.98785e-016 7.95139e-016 3.18055e-015 
-22.4031 93.4544 -199.343 0.89821 -0.508816 -179.858 0.450033 -6.71815 0.128135 1.44445 -1.28203 0.118231 4.36509 30.9601 2.57046 -8.15095 -2.80234 1.94985 11.3809 2.19677 -1.32699 -15.4855 3.62646 -0.458114 5.94695 3.09969 -1.04741 -5.87067 2.90238 4.91293 -16.8738 -0.893609 1.02439 19.6422 -9.8345 -1.16454 -4.47563 11.2939 14.4733 -13.5033 13.4364 -13.6604 4.96906 4.49186 3.86477 -1.37416 6.64413 0.266922 -3.63778 -9.57345 8.63723 4.96962e-017 1.98785e-016 -0 0.194555 2.00989 -5.73809 -2.26497 7.69135 5.58472 2.74832 -6.62082 -16.9335 1.98785e-016 3.97569e-016 -0 
-22.4163 93.4521 -199.343 0.884832 -0.512362 -179.877 0.460312 -6.72 0.130756 1.40335 -1.32797 0.120247 4.37535 30.9653 2.54154 -8.0445 -2.80894 1.93881 11.4221 2.19505 -1.323 -15.5167 4.64523 -0.303088 6.16613 2.51935 -1.2681 -5.855 2.32673 5.10291 -16.7951 -0.864974 1.0028 19.5902 -9.77059 -1.17953 -4.5049 11.2644 14.4854 -13.4752 13.4093 -13.6722 4.94652 4.5298 3.85599 -1.3824 6.57636 0.29315 -3.62577 -9.55335 8.63742 9.93923e-017 1.98785e-016 4.77083e-015 0.165626 2.04417 -5.92302 -2.27565 7.608 5.6587 2.77036 -6.60615 -16.8096 0 1.59028e-015 -0 
-22.4274 93.4495 -199.343 0.878908 -0.518889 -179.897 0.448216 -6.72186 0.126141 1.42815 -1.36149 0.116573 4.35601 30.9906 2.51523 -7.97502 -2.84542 1.9189 11.4176 2.20428 -1.32573 -15.4428 4.46996 -0.306842 6.15421 2.61876 -1.19105 -5.75604 2.4308 5.01506 -16.7922 -0.866383 1.00159 19.5796 -9.70984 -1.21065 -4.52672 11.2435 14.4701 -13.4692 13.3898 -13.6713 4.93414 4.56339 3.84957 -1.39179 6.51279 0.319464 -3.62 -9.53995 8.62972 4.96962e-017 0 3.18055e-015 0.166374 2.14387 -5.59912 -2.25071 7.41858 5.29349 2.80543 -6.5416 -16.7465 -2.20695e-032 -3.97569e-016 -3.18055e-015 
-22.4364 93.447 -199.343 0.877537 -0.528182 -179.912 0.435146 -6.7268 0.120513 1.45969 -1.39544 0.112139 4.38625 31.0181 2.47825 -7.98857 -2.89513 1.88036 11.4161 2.21712 -1.3016 -15.2844 3.5445 -0.482316 5.92977 3.08056 -0.916578 -5.58507 2.88907 4.90194 -16.7874 -0.855834 0.998893 19.5525 -9.69438 -1.25075 -4.51329 11.2159 14.4741 -13.5012 13.3643 -13.668 4.92679 4.58086 3.84687 -1.4005 6.46939 0.360037 -3.6053 -9.53057 8.61197 -0 0 1.59028e-015 0.163832 2.20116 -5.51994 -2.24486 7.29243 5.15478 2.82997 -6.50365 -16.6667 3.97569e-016 -3.97569e-016 3.18055e-015 
-22.4496 93.4448 -199.343 0.86929 -0.532758 -179.928 0.438529 -6.73386 0.116137 1.46791 -1.41379 0.108836 4.31944 31.0021 2.46486 -7.88074 -2.89278 1.87421 11.4133 2.23286 -1.27686 -15.2147 3.63836 -0.47372 5.95252 3.05315 -0.901957 -5.58918 2.86175 4.88527 -16.7887 -0.847236 0.996228 19.5291 -9.73732 -1.26107 -4.48247 11.2158 14.4587 -13.5598 13.363 -13.636 4.91013 4.60807 3.83761 -1.40492 6.41819 0.36446 -3.59236 -9.52276 8.6218 4.96962e-017 1.98785e-016 3.18055e-015 0.14834 2.26682 -5.45776 -2.23066 7.1587 4.94965 2.87354 -6.4711 -16.5368 -1.98785e-016 3.97569e-016 3.18055e-015 
-22.4631 93.4434 -199.343 0.858683 -0.533546 -179.939 0.427811 -6.73569 0.114931 1.48387 -1.43245 0.108504 4.28461 30.9842 2.43217 -7.78365 -2.88353 1.85121 11.4247 2.22544 -1.27437 -15.1476 3.6325 -0.463416 5.93101 2.9804 -0.900386 -5.56008 2.79041 4.87605 -16.7712 -0.825673 0.993954 19.495 -9.7225 -1.30011 -4.49188 11.1567 14.4844 -13.5983 13.306 -13.5932 4.892 4.65012 3.82036 -1.41569 6.3598 0.416968 -3.60287 -9.51561 8.60682 -0 0 1.59028e-015 0.117523 2.34916 -5.38836 -2.1939 7.02232 4.8397 2.86521 -6.44243 -16.485 -3.97569e-016 -7.95139e-016 -3.18055e-015 
-22.475 93.4439 -199.344 0.850636 -0.533746 -179.945 0.411824 -6.73859 0.104416 1.52633 -1.45903 0.0999377 4.25952 31.0066 2.3994 -7.77333 -2.92758 1.81321 11.405 2.23862 -1.26143 -15.0669 3.63172 -0.46295 5.9441 2.97649 -0.880215 -5.65945 2.78262 4.84969 -16.8034 -0.81718 0.996147 19.493 -9.78495 -1.3281 -4.48263 11.1991 14.4799 -13.6252 13.3503 -13.596 4.88062 4.67359 3.79364 -1.42679 6.31441 0.416628 -3.58264 -9.50714 8.62578 0 0 -6.36111e-015 0.0987639 2.41114 -5.37933 -2.18473 6.90246 4.76057 2.88074 -6.40662 -16.3958 0 0 -0 
-22.4869 93.4454 -199.347 0.83644 -0.533731 -179.952 0.397623 -6.74637 0.0949175 1.53602 -1.47787 0.0921676 4.27842 31.0066 2.37907 -7.77188 -2.92345 1.79535 11.4188 2.25566 -1.23352 -15.0024 3.59955 -0.473025 6.02918 3.18832 -0.899197 -5.97771 2.97932 4.91378 -16.7778 -0.814207 1.00813 19.4472 -9.87436 -1.37536 -4.46278 11.2856 14.4877 -13.6637 13.4431 -13.6358 4.8559 4.6968 3.78837 -1.42724 6.27716 0.418647 -3.58231 -9.50104 8.63652 4.96962e-017 1.98785e-016 -0 0.0645982 2.48259 -5.33335 -2.15258 6.77604 4.67993 2.88604 -6.38117 -16.3507 1.98785e-016 3.97569e-016 -3.18055e-015 
-22.5108 93.4461 -199.35 0.772635 -0.534013 -179.957 0.341473 -6.75996 0.0849327 1.5537 -1.4841 0.0855005 4.24691 31.02 2.36127 -7.73782 -2.96983 1.77546 11.4265 2.2567 -1.21692 -14.9568 3.62348 -0.465347 5.95535 2.87772 -0.909501 -5.73665 2.68188 4.85614 -16.7877 -0.79671 0.985836 19.4363 -9.9111 -1.38306 -4.46627 11.3043 14.4857 -13.6967 13.4645 -13.6231 4.76737 4.73034 3.72327 -1.42633 6.21347 0.484741 -3.59846 -9.43122 8.65146 1.49089e-016 0 -3.18055e-015 -0.0316364 2.55352 -5.28502 -2.112 6.65439 4.55015 2.90836 -6.35287 -16.264 3.97569e-016 -3.97569e-016 3.18055e-015 
-22.5212 93.4421 -199.353 0.773226 -0.532267 -179.961 0.352665 -6.76198 0.0794067 1.55089 -1.50733 0.0793174 4.26177 31.0323 2.32821 -7.73319 -2.99241 1.74302 11.44 2.25547 -1.21947 -14.9095 3.62496 -0.439168 6.00242 2.8098 -0.942496 -5.8436 2.61116 4.86275 -16.7668 -0.796486 0.987398 19.4121 -9.955 -1.42877 -4.47002 11.3728 14.46 -13.7685 13.5219 -13.4682 4.76429 4.75967 3.71583 -1.43744 6.16791 0.499439 -3.57739 -9.43344 8.64643 0 0 -0 -0.0451396 2.62201 -5.22918 -2.08489 6.53986 4.44214 2.91802 -6.33172 -16.2089 3.97569e-016 7.95139e-016 -3.18055e-015 
-22.523 93.4296 -199.356 0.813315 -0.518464 -179.957 0.383583 -6.74991 0.0661298 1.58363 -1.53425 0.0645554 4.24132 31.0491 2.31336 -7.71288 -3.01008 1.72755 11.4316 2.2565 -1.20834 -14.8638 3.64683 -0.420172 6.02838 2.84067 -0.958885 -5.90152 2.63985 4.87831 -16.7506 -0.7968 0.977719 19.3777 -9.97811 -1.45022 -4.48708 11.3887 14.4902 -13.7055 13.5339 -13.4712 4.81668 4.80117 3.69221 -1.46201 6.13091 0.521091 -3.5576 -9.48106 8.6352 -2.48481e-016 3.97569e-016 -0 -0.00592473 2.70361 -5.20069 -2.07668 6.42475 4.39056 2.92119 -6.31602 -16.1871 0 0 -0 
-22.538 93.4269 -199.356 0.77591 -0.5224 -179.948 0.346259 -6.75934 0.0449112 1.59943 -1.55596 0.0490131 4.28358 31.0859 2.29359 -7.78566 -3.05493 1.69954 11.446 2.26236 -1.19478 -14.8205 3.64829 -0.432402 6.05658 3.0341 -0.917049 -6.06572 2.82463 4.87284 -16.7444 -0.785249 0.979742 19.3564 -10.0575 -1.47067 -4.47244 11.3857 14.5101 -13.7724 13.5384 -13.477 4.76432 4.81991 3.6627 -1.45274 6.08684 0.537825 -3.53934 -9.46206 8.63171 4.96962e-017 3.97569e-016 3.18055e-015 -0.0656638 2.75811 -5.13801 -2.03912 6.32773 4.30084 2.92028 -6.31345 -16.1671 -1.98785e-016 -3.97569e-016 -0 
-22.5519 93.4261 -199.358 0.758861 -0.52319 -179.947 0.343318 -6.77417 0.0387752 1.58896 -1.56525 0.0428764 4.35394 31.0744 2.2644 -7.85723 -3.022 1.66901 11.4876 2.24415 -1.19024 -14.8052 3.65705 -0.425471 6.09743 3.13303 -0.933636 -6.22344 2.91603 4.91012 -16.7137 -0.782253 0.958416 19.3414 -10.0237 -1.49312 -4.50223 11.2961 14.5715 -13.7909 13.4742 -13.6147 4.73515 4.83781 3.65245 -1.4504 6.04549 0.515489 -3.56442 -9.44486 8.67178 4.96962e-017 1.98785e-016 -0 -0.0945196 2.8048 -5.06275 -2.01677 6.24183 4.19021 2.92443 -6.29819 -16.1373 3.97569e-016 -3.97569e-016 3.18055e-015 
-22.5665 93.4255 -199.36 0.744 -0.52372 -179.945 0.336651 -6.78491 0.02845 1.60153 -1.57765 0.0304717 4.37329 31.1026 2.25124 -7.89506 -3.04649 1.65139 11.5111 2.23251 -1.19541 -14.7967 3.64275 -0.406936 6.03558 2.91836 -0.93936 -6.02906 2.71245 4.85351 -16.7063 -0.761604 0.947981 19.3277 -10.0381 -1.49888 -4.515 11.2656 14.592 -13.8048 13.4519 -13.6475 4.70468 4.85813 3.63816 -1.44824 6.00937 0.540872 -3.54057 -9.42677 8.65256 -4.96962e-017 1.98785e-016 3.18055e-015 -0.129078 2.85536 -4.97778 -1.99133 6.16054 4.15584 2.93344 -6.28189 -16.167 0 0 -0 
